<mxfile host="app.diagrams.net" agent="Mozilla/5.0 (Windows NT 10.0; Win64; x64) AppleWebKit/537.36 (KHTML, like Gecko) Chrome/136.0.0.0 Safari/537.36" version="27.0.9">
  <diagram name="Use Case F - Activity Diagram Updated A1â€“A4" id="activity-diagram">
    <mxGraphModel dx="1277" dy="747" grid="1" gridSize="10" guides="1" tooltips="1" connect="1" arrows="1" fold="1" page="1" pageScale="1" pageWidth="827" pageHeight="1169" math="0" shadow="0">
      <root>
        <mxCell id="0" />
        <mxCell id="1" parent="0" />
        <mxCell id="start" value="" style="ellipse;whiteSpace=wrap;html=1;aspect=fixed;fillColor=#000000;" parent="1" vertex="1">
          <mxGeometry x="60" y="40" width="30" height="30" as="geometry" />
        </mxCell>
        <mxCell id="2" value="Timer triggers scheduled inventory check" style="rounded=1;whiteSpace=wrap;html=1;" parent="1" vertex="1">
          <mxGeometry x="120" y="40" width="300" height="50" as="geometry" />
        </mxCell>
        <mxCell id="3" value="System checks inventory levels" style="rounded=1;whiteSpace=wrap;html=1;" parent="1" vertex="1">
          <mxGeometry x="120" y="110" width="300" height="50" as="geometry" />
        </mxCell>
        <mxCell id="4" value="System identifies low-stock item" style="rounded=1;whiteSpace=wrap;html=1;" parent="1" vertex="1">
          <mxGeometry x="120" y="180" width="300" height="50" as="geometry" />
        </mxCell>
        <mxCell id="decision1" value="Is item data valid?" style="rhombus;whiteSpace=wrap;html=1;" parent="1" vertex="1">
          <mxGeometry x="170" y="260" width="160" height="60" as="geometry" />
        </mxCell>
        <mxCell id="altA1" value="A1: System logs error and skips item" style="rounded=1;whiteSpace=wrap;html=1;fillColor=#ffe6cc;" parent="1" vertex="1">
          <mxGeometry x="470" y="250" width="300" height="50" as="geometry" />
        </mxCell>
        <mxCell id="decision2" value="Is product active?" style="rhombus;whiteSpace=wrap;html=1;" parent="1" vertex="1">
          <mxGeometry x="170" y="340" width="160" height="60" as="geometry" />
        </mxCell>
        <mxCell id="altA2" value="A2: System flags product as discontinued" style="rounded=1;whiteSpace=wrap;html=1;fillColor=#ffe6cc;" parent="1" vertex="1">
          <mxGeometry x="470" y="340" width="300" height="50" as="geometry" />
        </mxCell>
        <mxCell id="5" value="System selects supplier based on price" style="rounded=1;whiteSpace=wrap;html=1;" parent="1" vertex="1">
          <mxGeometry x="120" y="420" width="300" height="50" as="geometry" />
        </mxCell>
        <mxCell id="decision3" value="Is supplier available?" style="rhombus;whiteSpace=wrap;html=1;" parent="1" vertex="1">
          <mxGeometry x="170" y="490" width="160" height="60" as="geometry" />
        </mxCell>
        <mxCell id="altA3" value="A3: System flags item for manual intervention" style="rounded=1;whiteSpace=wrap;html=1;fillColor=#ffe6cc;" parent="1" vertex="1">
          <mxGeometry x="470" y="490" width="300" height="50" as="geometry" />
        </mxCell>
        <mxCell id="6" value="System sends order to supplier" style="rounded=1;whiteSpace=wrap;html=1;" parent="1" vertex="1">
          <mxGeometry x="120" y="570" width="300" height="50" as="geometry" />
        </mxCell>
        <mxCell id="7" value="Supplier delivers items" style="rounded=1;whiteSpace=wrap;html=1;" parent="1" vertex="1">
          <mxGeometry x="120" y="640" width="300" height="50" as="geometry" />
        </mxCell>
        <mxCell id="decision4" value="Was delivery successful?" style="rhombus;whiteSpace=wrap;html=1;" parent="1" vertex="1">
          <mxGeometry x="170" y="710" width="160" height="60" as="geometry" />
        </mxCell>
        <mxCell id="altA4" value="A4: System logs delivery failure" style="rounded=1;whiteSpace=wrap;html=1;fillColor=#ffe6cc;" parent="1" vertex="1">
          <mxGeometry x="470" y="710" width="300" height="50" as="geometry" />
        </mxCell>
        <mxCell id="8" value="System updates inventory levels" style="rounded=1;whiteSpace=wrap;html=1;" parent="1" vertex="1">
          <mxGeometry x="120" y="790" width="300" height="50" as="geometry" />
        </mxCell>
        <mxCell id="e1" style="edgeStyle=orthogonalEdgeStyle;" parent="1" source="start" target="2" edge="1">
          <mxGeometry relative="1" as="geometry" />
        </mxCell>
        <mxCell id="e2" style="edgeStyle=orthogonalEdgeStyle;" parent="1" source="2" target="3" edge="1">
          <mxGeometry relative="1" as="geometry" />
        </mxCell>
        <mxCell id="e3" style="edgeStyle=orthogonalEdgeStyle;" parent="1" source="3" target="4" edge="1">
          <mxGeometry relative="1" as="geometry" />
        </mxCell>
        <mxCell id="e4" style="edgeStyle=orthogonalEdgeStyle;" parent="1" source="4" target="decision1" edge="1">
          <mxGeometry relative="1" as="geometry" />
        </mxCell>
        <mxCell id="eA1" style="edgeStyle=orthogonalEdgeStyle;" parent="1" source="decision1" target="altA1" edge="1">
          <mxGeometry relative="1" as="geometry" />
        </mxCell>
        <mxCell id="e5" style="edgeStyle=orthogonalEdgeStyle;" parent="1" source="decision1" target="decision2" edge="1">
          <mxGeometry relative="1" as="geometry" />
        </mxCell>
        <mxCell id="eA2" style="edgeStyle=orthogonalEdgeStyle;" parent="1" source="decision2" target="altA2" edge="1">
          <mxGeometry relative="1" as="geometry" />
        </mxCell>
        <mxCell id="e6" style="edgeStyle=orthogonalEdgeStyle;" parent="1" source="decision2" target="5" edge="1">
          <mxGeometry relative="1" as="geometry" />
        </mxCell>
        <mxCell id="e7" style="edgeStyle=orthogonalEdgeStyle;" parent="1" source="5" target="decision3" edge="1">
          <mxGeometry relative="1" as="geometry" />
        </mxCell>
        <mxCell id="eA3" style="edgeStyle=orthogonalEdgeStyle;" parent="1" source="decision3" target="altA3" edge="1">
          <mxGeometry relative="1" as="geometry" />
        </mxCell>
        <mxCell id="e8" style="edgeStyle=orthogonalEdgeStyle;" parent="1" source="decision3" target="6" edge="1">
          <mxGeometry relative="1" as="geometry" />
        </mxCell>
        <mxCell id="e9" style="edgeStyle=orthogonalEdgeStyle;" parent="1" source="6" target="7" edge="1">
          <mxGeometry relative="1" as="geometry" />
        </mxCell>
        <mxCell id="e10" style="edgeStyle=orthogonalEdgeStyle;" parent="1" source="7" target="decision4" edge="1">
          <mxGeometry relative="1" as="geometry" />
        </mxCell>
        <mxCell id="eA4" style="edgeStyle=orthogonalEdgeStyle;" parent="1" source="decision4" target="altA4" edge="1">
          <mxGeometry relative="1" as="geometry" />
        </mxCell>
        <mxCell id="e11" style="edgeStyle=orthogonalEdgeStyle;" parent="1" source="decision4" target="8" edge="1">
          <mxGeometry relative="1" as="geometry" />
        </mxCell>
        <mxCell id="e12" style="edgeStyle=orthogonalEdgeStyle;" parent="1" source="8" target="end" edge="1">
          <mxGeometry relative="1" as="geometry" />
        </mxCell>
        <mxCell id="Clx9IcPEwD-VhnCD6UOx-9" value="" style="group" vertex="1" connectable="0" parent="1">
          <mxGeometry x="230" y="860" width="30" height="30" as="geometry" />
        </mxCell>
        <mxCell id="end" value="" style="ellipse;whiteSpace=wrap;html=1;aspect=fixed;" parent="Clx9IcPEwD-VhnCD6UOx-9" vertex="1">
          <mxGeometry width="30" height="30" as="geometry" />
        </mxCell>
        <mxCell id="Clx9IcPEwD-VhnCD6UOx-8" value="" style="ellipse;whiteSpace=wrap;html=1;aspect=fixed;fillColor=#000000;" vertex="1" parent="Clx9IcPEwD-VhnCD6UOx-9">
          <mxGeometry x="10" y="10" width="10" height="10" as="geometry" />
        </mxCell>
      </root>
    </mxGraphModel>
  </diagram>
</mxfile>
